# xmcd
# 
# Track frame offsets:
#     150
#     44345
#     55082
#     92180
#     125830
#     171242
#     203752
#     219832
# 
# Disc length: 3518
# 
# Revision: 8
# Processed by: cddbd v1.5.2PL0 Copyright (c) Steve Scherf et al.
# Submitted via: BonkEnc v1.0.8
# 
DISCID=700dbc08
DTITLE=Deva Premal - The Essence
DYEAR=2001
DGENRE=New Age
TTITLE0=Gayatri Mantra
TTITLE1=Om Asatoma
TTITLE2=Tumare Darshan
TTITLE3=Om Namo
TTITLE4=Shima Shima
TTITLE5=Sammasati
TTITLE6=Yemaya Assessu 
TTITLE7=Gayatri Mantra
EXTD=\n YEAR: 2001
EXTT0=
EXTT1=
EXTT2=
EXTT3=
EXTT4=
EXTT5=
EXTT6=
EXTT7=
PLAYORDER=
